<svg width="20" height="20" viewBox="0 0 20 20" fill="none" xmlns="http://www.w3.org/2000/svg">
<path fill-rule="evenodd" clip-rule="evenodd" d="M2.12445 1.69794C0.952881 2.86951 0.952881 4.75513 0.952881 8.52637V11.4737C0.952881 15.245 0.952881 17.1306 2.12445 18.3022C3.29603 19.4737 5.18164 19.4737 8.95288 19.4737H10.7857C14.557 19.4737 16.4426 19.4737 17.6142 18.3022C18.7857 17.1306 18.7857 15.245 18.7857 11.4737V8.52637C18.7857 4.75513 18.7857 2.86951 17.6142 1.69794C16.4426 0.526367 14.557 0.526367 10.7857 0.526367H8.95288C5.18165 0.526367 3.29603 0.526367 2.12445 1.69794ZM8.86931 4.73689V9.00005H4.91574V11.0001H8.86931L8.86931 15.2632H10.8693V11.0001H14.8229V9.00005H10.8693V4.73689H8.86931Z" fill="white"/>
</svg>
