<svg width="52" height="51" viewBox="0 0 52 51" fill="none" xmlns="http://www.w3.org/2000/svg">
<rect x="0.802002" y="0.0273438" width="51.0891" height="50.6572" rx="25.3286" fill="#79747E"/>
<path d="M29.1636 27.5254V19.4707H30.6636V27.5254C30.6636 28.2754 30.5099 28.9082 30.2026 29.4238C29.8953 29.9395 29.4709 30.3327 28.9292 30.6035C28.3927 30.8691 27.7756 31.002 27.0776 31.002C26.3797 31.002 25.7599 30.8822 25.2183 30.6426C24.6766 30.403 24.2521 30.0384 23.9448 29.5488C23.6375 29.0592 23.4839 28.4421 23.4839 27.6973H24.9917C24.9917 28.1764 25.0802 28.5697 25.2573 28.877C25.4344 29.1842 25.6792 29.4108 25.9917 29.5566C26.3094 29.7025 26.6714 29.7754 27.0776 29.7754C27.4735 29.7754 27.8276 29.6921 28.1401 29.5254C28.4578 29.3535 28.7078 29.1009 28.8901 28.7676C29.0724 28.429 29.1636 28.015 29.1636 27.5254Z" fill="white"/>
</svg>
