<svg width="30" height="31" viewBox="0 0 30 31" fill="none" xmlns="http://www.w3.org/2000/svg">
<path fill-rule="evenodd" clip-rule="evenodd" d="M19.8212 2.19445C18.5822 1.48226 17.1608 1.05769 15.6513 1.0054C15.4953 0.999994 15.32 0.999997 15.0238 1H15.0237L15 1L14.9762 1H14.9762C14.68 0.999997 14.5046 0.999994 14.3487 1.0054C10.002 1.15599 6.38485 4.39347 5.75516 8.697C5.73257 8.85137 5.71321 9.0256 5.6805 9.31998L5.68049 9.32007L5.67787 9.3437L5.30017 12.743C5.19703 13.6713 5.1524 14.0597 5.06764 14.4327C4.962 14.8974 4.80917 15.3502 4.61152 15.7839C4.45293 16.132 4.25301 16.468 3.77248 17.2689L2.45989 19.4565L2.42238 19.519C2.05177 20.1365 1.71733 20.6938 1.5231 21.1621C1.31959 21.6528 1.15084 22.3232 1.52578 22.9854C1.90072 23.6476 2.56235 23.8478 3.08784 23.9258C3.58936 24.0002 4.23928 24.0001 4.95947 24H4.95949L5.03237 24H24.9676L25.0405 24H25.0405C25.7607 24.0001 26.4106 24.0002 26.9121 23.9258C27.4376 23.8478 28.0993 23.6476 28.4742 22.9854C28.8491 22.3232 28.6804 21.6528 28.4769 21.1621C28.2827 20.6938 27.9482 20.1366 27.5776 19.5191L27.5776 19.519L27.5401 19.4565L26.2275 17.2689C25.747 16.468 25.547 16.132 25.3885 15.7839C25.1908 15.3502 25.038 14.8974 24.9323 14.4327C24.8476 14.0597 24.803 13.6713 24.6998 12.743L24.6687 12.4632C24.4492 12.4875 24.226 12.5 24 12.5C23.5334 12.5 23.0793 12.4467 22.6434 12.346L22.712 12.9639L22.719 13.0265C22.8131 13.874 22.8693 14.3798 22.9821 14.8759C23.1179 15.4735 23.3144 16.0557 23.5685 16.6133C23.7795 17.0763 24.0413 17.5126 24.4801 18.2438L24.5125 18.2979L25.8251 20.4855C26.2454 21.186 26.4991 21.6141 26.6295 21.9283L26.6362 21.9447L26.6186 21.9474C26.2822 21.9973 25.7845 22 24.9676 22H5.03237C4.21548 22 3.71783 21.9973 3.38135 21.9474L3.36378 21.9447L3.37053 21.9283C3.50084 21.6141 3.75459 21.186 4.17488 20.4855L5.48747 18.2979L5.51991 18.2438C5.95864 17.5126 6.22049 17.0763 6.43146 16.6133C6.68558 16.0557 6.88208 15.4735 7.0179 14.8759C7.13066 14.3798 7.18685 13.874 7.28098 13.0265L7.28793 12.9639L7.66564 9.56456C7.70173 9.23968 7.71716 9.10224 7.73408 8.98655C8.22384 5.63937 11.0372 3.12133 14.418 3.0042C14.5348 3.00015 14.6731 3 15 3C15.3269 3 15.4652 3.00015 15.582 3.0042C16.6775 3.04215 17.7134 3.33218 18.6299 3.82081C18.9339 3.2126 19.3383 2.66325 19.8212 2.19445ZM22.1615 4.12916C21.5923 4.57118 21.1866 5.21366 21.0502 5.95065C21.6658 6.81785 22.0903 7.83475 22.2595 8.94379C22.7503 9.29399 23.3511 9.5 24 9.5C24.1141 9.5 24.2266 9.49363 24.3374 9.48124L24.3221 9.34369L24.3195 9.32018C24.2868 9.02569 24.2674 8.8514 24.2448 8.697C23.9899 6.95505 23.2456 5.38777 22.1615 4.12916ZM26.6966 22.1376C26.6964 22.1375 26.6961 22.1349 26.6959 22.1303C26.6967 22.1354 26.6967 22.1377 26.6966 22.1376ZM26.826 21.9005C26.8301 21.8982 26.8325 21.8972 26.8326 21.8973C26.8328 21.8974 26.8308 21.8985 26.826 21.9005ZM3.16734 21.8973C3.16752 21.8972 3.16989 21.8982 3.17395 21.9005C3.16919 21.8985 3.16716 21.8974 3.16734 21.8973ZM3.30406 22.1303C3.30394 22.1349 3.30356 22.1375 3.3034 22.1376C3.30324 22.1377 3.30331 22.1354 3.30406 22.1303Z" fill="#33363F"/>
<path d="M10.6533 23.997C10.9097 25.4323 11.4747 26.7006 12.2606 27.6051C13.0465 28.5097 14.0094 29 15 29C15.9906 29 16.9535 28.5097 17.7394 27.6051C18.5253 26.7006 19.0903 25.4323 19.3467 23.997" stroke="#33363F" stroke-width="2" stroke-linecap="round"/>
<circle cx="24" cy="6.5" r="3.5" fill="#FF4949" stroke="#FF4949"/>
</svg>
