<svg width="21" height="21" viewBox="0 0 21 21" fill="none" xmlns="http://www.w3.org/2000/svg">
<path fill-rule="evenodd" clip-rule="evenodd" d="M10.2778 0.0366211C11.6682 0.0366211 12.8023 0.0366211 13.7388 0.0953383C13.6207 0.385873 13.5556 0.703645 13.5556 1.03662L13.5556 1.53662H12.7222C11.3415 1.53662 10.2222 2.65591 10.2222 4.03662C10.2222 5.41733 11.3415 6.53662 12.7222 6.53662H13.5556V7.03662C13.5556 8.41733 14.6748 9.53662 16.0556 9.53662C17.023 9.53662 17.8622 8.98705 18.2778 8.18307V12.0366C18.2778 15.8079 18.2778 17.6935 17.1062 18.865C15.9346 20.0366 14.049 20.0366 10.2778 20.0366H8.5C4.72877 20.0366 2.84315 20.0366 1.67157 18.865C0.5 17.6935 0.5 15.8079 0.5 12.0366V8.03662C0.5 4.26538 0.5 2.37977 1.67157 1.20819C2.84315 0.0366211 4.72876 0.0366211 8.5 0.0366211H10.2778ZM4.94444 9.03662C4.39216 9.03662 3.94444 9.48434 3.94444 10.0366C3.94444 10.5889 4.39216 11.0366 4.94444 11.0366H9.38889C9.94117 11.0366 10.3889 10.5889 10.3889 10.0366C10.3889 9.48434 9.94117 9.03662 9.38889 9.03662H4.94444ZM4.94444 12.0366C4.39216 12.0366 3.94444 12.4843 3.94444 13.0366C3.94444 13.5889 4.39216 14.0366 4.94444 14.0366H11.6111C12.1634 14.0366 12.6111 13.5889 12.6111 13.0366C12.6111 12.4843 12.1634 12.0366 11.6111 12.0366H4.94444ZM4.94444 15.0366C4.39216 15.0366 3.94444 15.4843 3.94444 16.0366C3.94444 16.5889 4.39216 17.0366 4.94444 17.0366H9.38889C9.94117 17.0366 10.3889 16.5889 10.3889 16.0366C10.3889 15.4843 9.94117 15.0366 9.38889 15.0366H4.94444Z" fill="white"/>
<path d="M16.0557 1.03662L16.0557 7.03662" stroke="white" stroke-width="2" stroke-linecap="round"/>
<path d="M19.3887 4.03662L12.722 4.03662" stroke="white" stroke-width="2" stroke-linecap="round"/>
</svg>
