<svg width="25" height="24" viewBox="0 0 25 24" fill="none" xmlns="http://www.w3.org/2000/svg">
<path fill-rule="evenodd" clip-rule="evenodd" d="M6.79199 16H16.292C18.1776 16 19.1204 16 19.7062 15.4142C20.292 14.8284 20.292 13.8856 20.292 12V7C20.292 5.11438 20.292 4.17157 19.7062 3.58579C19.1204 3 18.1776 3 16.292 3H8.29199C6.40637 3 5.46357 3 4.87778 3.58579C4.29199 4.17157 4.29199 5.11438 4.29199 7V18.5C4.29199 17.1193 5.41128 16 6.79199 16ZM9.29199 6C8.18742 6 7.29199 6.89543 7.29199 8C7.29199 9.10457 8.18742 10 9.29199 10L15.292 10C16.3966 10 17.292 9.10457 17.292 8C17.292 6.89543 16.3966 6 15.292 6L9.29199 6Z" fill="white"/>
<path d="M19.7062 15.4142L18.9991 14.7071L18.9991 14.7071L19.7062 15.4142ZM19.7062 3.58579L18.9991 4.29289L18.9991 4.29289L19.7062 3.58579ZM9.29199 6L9.29199 5H9.29199V6ZM9.29199 10L9.29199 9H9.29199V10ZM15.292 10L15.292 11H15.292V10ZM15.292 6L15.292 5L15.292 5L15.292 6ZM16.292 15H6.79199V17H16.292V15ZM18.9991 14.7071C18.923 14.7832 18.787 14.8774 18.3533 14.9357C17.8908 14.9979 17.2631 15 16.292 15V17C17.2065 17 17.993 17.0021 18.6198 16.9179C19.2753 16.8297 19.9037 16.631 20.4133 16.1213L18.9991 14.7071ZM19.292 12C19.292 12.9711 19.2899 13.5988 19.2277 14.0613C19.1694 14.495 19.0752 14.631 18.9991 14.7071L20.4133 16.1213C20.923 15.6117 21.1217 14.9833 21.2099 14.3278C21.2941 13.701 21.292 12.9145 21.292 12H19.292ZM19.292 7V12H21.292V7H19.292ZM18.9991 4.29289C19.0752 4.36902 19.1694 4.50496 19.2277 4.9387C19.2899 5.40121 19.292 6.02892 19.292 7H21.292C21.292 6.08546 21.2941 5.29896 21.2099 4.67221C21.1217 4.01669 20.923 3.38834 20.4133 2.87868L18.9991 4.29289ZM16.292 4C17.2631 4 17.8908 4.00212 18.3533 4.06431C18.787 4.12262 18.923 4.21677 18.9991 4.29289L20.4133 2.87868C19.9037 2.36902 19.2753 2.17027 18.6198 2.08214C17.993 1.99788 17.2065 2 16.292 2V4ZM8.29199 4H16.292V2H8.29199V4ZM5.58489 4.29289C5.66101 4.21677 5.79696 4.12262 6.2307 4.06431C6.6932 4.00212 7.32091 4 8.29199 4V2C7.37745 2 6.59095 1.99788 5.9642 2.08214C5.30868 2.17027 4.68033 2.36902 4.17067 2.87868L5.58489 4.29289ZM5.29199 7C5.29199 6.02892 5.29412 5.40121 5.3563 4.9387C5.41461 4.50496 5.50876 4.36902 5.58489 4.29289L4.17067 2.87868C3.66101 3.38834 3.46226 4.01669 3.37413 4.67221C3.28987 5.29896 3.29199 6.08546 3.29199 7H5.29199ZM5.29199 18.5V7H3.29199V18.5H5.29199ZM6.79199 15C4.859 15 3.29199 16.567 3.29199 18.5H5.29199C5.29199 17.6716 5.96357 17 6.79199 17V15ZM8.29199 8C8.29199 7.44772 8.73971 7 9.29199 7V5C7.63514 5 6.29199 6.34315 6.29199 8H8.29199ZM9.29199 9C8.73971 9 8.29199 8.55228 8.29199 8H6.29199C6.29199 9.65685 7.63514 11 9.29199 11V9ZM15.292 9L9.29199 9L9.29199 11L15.292 11L15.292 9ZM16.292 8C16.292 8.55229 15.8443 9 15.292 9V11C16.9488 11 18.292 9.65686 18.292 8H16.292ZM15.292 7C15.8443 7 16.292 7.44772 16.292 8H18.292C18.292 6.34315 16.9488 5 15.292 5L15.292 7ZM9.29199 7L15.292 7L15.292 5L9.29199 5L9.29199 7Z" fill="white"/>
<path d="M20.292 21H10.292" stroke="white" stroke-width="2" stroke-linecap="round"/>
</svg>
