<svg width="21" height="21" viewBox="0 0 21 21" fill="none" xmlns="http://www.w3.org/2000/svg">
<path fill-rule="evenodd" clip-rule="evenodd" d="M8.73529 16.5072C13.2835 16.5072 16.9706 12.8201 16.9706 8.27192C16.9706 3.72369 13.2835 0.0366211 8.73529 0.0366211C4.18707 0.0366211 0.5 3.72369 0.5 8.27192C0.5 12.8201 4.18707 16.5072 8.73529 16.5072ZM8.73529 2.56603C7.98599 2.56603 7.24402 2.71362 6.55175 3.00037C5.85948 3.28711 5.23047 3.70741 4.70063 4.23725C4.17079 4.76709 3.75049 5.3961 3.46375 6.08837C3.177 6.78064 3.02941 7.52261 3.02941 8.27192C3.02941 8.8242 3.47713 9.27192 4.02941 9.27192C4.5817 9.27192 5.02941 8.8242 5.02941 8.27192C5.02941 7.78525 5.12527 7.30335 5.31151 6.85374C5.49774 6.40412 5.77072 5.99558 6.11484 5.65146C6.45896 5.30734 6.8675 5.03436 7.31711 4.84813C7.76673 4.66189 8.24863 4.56603 8.73529 4.56603C9.28758 4.56603 9.73529 4.11832 9.73529 3.56603C9.73529 3.01375 9.28758 2.56603 8.73529 2.56603Z" fill="white"/>
<path d="M19.3236 18.8603L16.9707 16.5073" stroke="white" stroke-width="2" stroke-linecap="round"/>
</svg>
