<svg width="65" height="64" viewBox="0 0 65 64" fill="none" xmlns="http://www.w3.org/2000/svg">
<rect x="0.286133" width="64" height="64" rx="32" fill="#FF7B42"/>
<path fill-rule="evenodd" clip-rule="evenodd" d="M16.1953 23.6485C16.1953 21.577 17.8195 20.0063 19.6953 20.0063H45.362C47.2377 20.0063 48.862 21.577 48.862 23.6485V40.3513C48.862 42.4229 47.2377 43.9934 45.362 43.9934H19.6953C17.8195 43.9934 16.1953 42.4229 16.1953 40.3513V23.6485ZM27.6286 31.9998C27.6286 29.0864 29.8224 26.7247 32.5286 26.7247C35.2348 26.7247 37.4286 29.0864 37.4286 31.9998C37.4286 34.9132 35.2348 37.2749 32.5286 37.2749C29.8224 37.2749 27.6286 34.9132 27.6286 31.9998ZM23.2039 31.9998C23.2039 33.0429 22.4185 33.8884 21.4496 33.8884C20.4807 33.8884 19.6953 33.0429 19.6953 31.9998C19.6953 30.9568 20.4807 30.1112 21.4496 30.1112C22.4185 30.1112 23.2039 30.9568 23.2039 31.9998ZM43.6078 33.8884C44.5766 33.8884 45.362 33.0429 45.362 31.9998C45.362 30.9568 44.5766 30.1112 43.6078 30.1112C42.639 30.1112 41.8536 30.9568 41.8536 31.9998C41.8536 33.0429 42.639 33.8884 43.6078 33.8884Z" fill="white"/>
</svg>
