<svg width="13" height="13" viewBox="0 0 13 13" fill="none" xmlns="http://www.w3.org/2000/svg">
<path fill-rule="evenodd" clip-rule="evenodd" d="M6.79297 12.5C10.1067 12.5 12.793 9.81371 12.793 6.5C12.793 3.18629 10.1067 0.5 6.79297 0.5C3.47926 0.5 0.792969 3.18629 0.792969 6.5C0.792969 9.81371 3.47926 12.5 6.79297 12.5ZM10.2279 5.14018C10.5814 4.71591 10.5241 4.08534 10.0998 3.73178C9.67554 3.37821 9.04498 3.43554 8.69141 3.85982L6.76013 6.17736C6.41341 6.59342 6.21849 6.82377 6.06288 6.96531L6.05693 6.97069L6.05052 6.96587C5.88273 6.839 5.66776 6.62724 5.2848 6.24428L4.83341 5.79289C4.44289 5.40237 3.80972 5.40237 3.4192 5.79289C3.02867 6.18342 3.02867 6.81658 3.4192 7.20711L3.87059 7.6585L3.91141 7.69933C4.23791 8.02595 4.552 8.34016 4.84424 8.56114C5.17161 8.80868 5.60032 9.04146 6.14973 9.01653C6.69914 8.99161 7.10503 8.72098 7.40864 8.44482C7.67967 8.19829 7.96402 7.85693 8.25961 7.50209L8.29657 7.45773L10.2279 5.14018Z" fill="#2ADD20"/>
</svg>
