<svg width="65" height="64" viewBox="0 0 65 64" fill="none" xmlns="http://www.w3.org/2000/svg">
<rect x="0.286133" width="64" height="64" rx="32" fill="#FF7B42"/>
<path fill-rule="evenodd" clip-rule="evenodd" d="M25.0718 19.9644C18.0744 23.8021 15.6769 32.3018 19.7169 38.949C23.7568 45.5962 32.7043 47.8736 39.7017 44.0358C46.6991 40.1982 49.0965 31.6984 45.0567 25.0512C41.0167 18.4041 32.0692 16.1266 25.0718 19.9644ZM22.347 29.3205C22.5795 28.6664 23.3261 28.3151 24.0146 28.5359L28.0733 29.8373C28.5631 29.9944 28.9107 30.4094 28.9618 30.8981C29.0129 31.3868 28.7581 31.8586 28.3104 32.1042L25.2769 33.7679C24.6476 34.1131 23.8428 33.9082 23.4794 33.3103C23.1161 32.7125 23.3317 31.948 23.9611 31.6028L24.4737 31.3217L23.173 30.9046C22.4844 30.6838 22.1146 29.9746 22.347 29.3205ZM35.9949 23.8723C36.1379 23.1954 35.6763 22.5366 34.9637 22.4008C34.2512 22.2649 33.5577 22.7035 33.4147 23.3804L32.5718 27.3701C32.4701 27.8516 32.6746 28.3451 33.0946 28.6315C33.5146 28.9179 34.0721 28.9441 34.5199 28.6986L37.5533 27.0349C38.1827 26.6897 38.3983 25.9252 38.0349 25.3273C37.6716 24.7295 36.8668 24.5246 36.2374 24.8698L35.7248 25.1509L35.9949 23.8723ZM26.5091 37.7914C26.2184 37.3131 26.3909 36.7015 26.8944 36.4253L39.169 29.6933C39.6724 29.4171 40.3163 29.581 40.607 30.0593C41.2565 31.1281 41.6003 32.874 41.1986 34.6717C40.786 36.5181 39.5838 38.4382 37.1216 39.7886C34.6594 41.139 32.3079 41.168 30.4182 40.5842C28.5784 40.016 27.1586 38.8602 26.5091 37.7914Z" fill="white"/>
</svg>
