<svg width="65" height="64" viewBox="0 0 65 64" fill="none" xmlns="http://www.w3.org/2000/svg">
<rect x="0.286133" width="64" height="64" rx="32" fill="#FF7B42"/>
<path fill-rule="evenodd" clip-rule="evenodd" d="M33.9202 17.32C34.5852 16.9296 35.4157 16.8941 36.1149 17.2262C41.3781 19.7261 43.9354 24.0916 45.1702 28.197C46.3852 32.2363 46.3849 36.231 46.3849 38.3782V38.4286C46.3849 38.9969 46.1472 39.542 45.7242 39.9438C45.3013 40.3456 44.7274 40.5714 44.1292 40.5714H37.3619V44.8571C37.3619 46.0406 36.3519 47 35.1061 47C33.8603 47 32.8504 46.0406 32.8504 44.8571V38.4286V19.1429C32.8504 18.4002 33.2552 17.7105 33.9202 17.32ZM18.1879 17.5357C19.1223 17.5357 19.8797 18.2553 19.8797 19.1429V24.5C19.8797 25.4946 20.2956 26.4484 21.036 27.1517C21.3585 27.458 21.7311 27.7059 22.1355 27.8882V19.1429C22.1355 18.2553 22.893 17.5357 23.8273 17.5357C24.7617 17.5357 25.5191 18.2553 25.5191 19.1429V27.8882C25.9269 27.7044 26.2989 27.4554 26.6187 27.1517C26.9853 26.8034 27.276 26.39 27.4744 25.9351C27.6728 25.4801 27.7749 24.9924 27.7749 24.5V19.1429C27.7749 18.2553 28.5324 17.5357 29.4667 17.5357C30.4011 17.5357 31.1585 18.2553 31.1585 19.1429V24.5C31.1585 25.4146 30.9689 26.3202 30.6005 27.1651C30.2321 28.0101 29.6921 28.7778 29.0113 29.4245C28.3305 30.0712 27.5223 30.5842 26.6329 30.9342C26.4521 31.0053 26.2687 31.0694 26.0831 31.1264V44.8571C26.0831 46.0406 25.0731 47 23.8273 47C22.5815 47 21.5716 46.0406 21.5716 44.8571V31.1264C20.4775 30.7903 19.4716 30.2112 18.6434 29.4245C17.2685 28.1184 16.4961 26.347 16.4961 24.5V19.1429C16.4961 18.2553 17.2535 17.5357 18.1879 17.5357Z" fill="white"/>
</svg>
