<svg width="19" height="22" viewBox="0 0 19 22" fill="none" xmlns="http://www.w3.org/2000/svg">
<path id="Subtract" fill-rule="evenodd" clip-rule="evenodd" d="M0.572072 6.99241C0.206055 7.79872 0.206055 8.71602 0.206055 10.5506V16.2802C0.206055 18.828 0.206055 20.1019 0.987251 20.8934C1.73315 21.6492 2.91312 21.6833 5.20719 21.6849V14.9291C5.20719 13.643 6.23965 12.5779 7.54077 12.5779H11.5415C12.8427 12.5779 13.8751 13.643 13.8751 14.9291V21.6849C16.1692 21.6833 17.3492 21.6492 18.0951 20.8934C18.8763 20.1019 18.8763 18.828 18.8763 16.2802V10.5506C18.8763 8.71602 18.8763 7.79872 18.5102 6.99241C18.1442 6.1861 17.4568 5.58914 16.0821 4.3952L14.7485 3.23704C12.2636 1.07901 11.0211 0 9.54115 0C8.06118 0 6.81873 1.07901 4.33384 3.23704L3.00025 4.3952C1.62548 5.58914 0.93809 6.1861 0.572072 6.99241ZM11.8751 21.6849V14.9291C11.8751 14.7227 11.7134 14.5779 11.5415 14.5779H7.54077C7.36886 14.5779 7.20719 14.7227 7.20719 14.9291V21.6849H11.8751Z" fill="white"/>
</svg>
