<svg width="65" height="64" viewBox="0 0 65 64" fill="none" xmlns="http://www.w3.org/2000/svg">
<rect x="0.286133" width="64" height="64" rx="32" fill="#FF7B42"/>
<path fill-rule="evenodd" clip-rule="evenodd" d="M44.3545 25.1938L46.2494 19.8795C46.3057 19.7271 46.3157 19.5627 46.2778 19.4052C46.2401 19.2476 46.1564 19.1035 46.0362 18.9892C45.916 18.875 45.7641 18.7954 45.5983 18.7595C45.4325 18.7237 45.2593 18.7331 45.0989 18.7867L39.5046 20.5867C39.3666 20.6328 39.2188 20.6472 39.0738 20.6286C38.9286 20.6099 38.7902 20.5589 38.67 20.4795L33.9329 17.1152C33.7984 17.0413 33.6461 17.0017 33.4908 17.0001C33.3354 16.9984 33.1823 17.035 33.0461 17.1061C32.91 17.1772 32.7955 17.2805 32.7138 17.406C32.632 17.5315 32.5857 17.6749 32.5794 17.8224V23.4366C32.5752 23.5742 32.5385 23.7092 32.4722 23.8315C32.4058 23.9539 32.3114 24.0606 32.1959 24.1438L27.3686 27.3795C27.2301 27.4712 27.1215 27.5981 27.0552 27.7455C26.9888 27.893 26.9673 28.0552 26.9932 28.2137C27.019 28.3722 27.0912 28.5206 27.2014 28.6421C27.3116 28.7636 27.4556 28.8532 27.6167 28.9009L33.2561 30.5723C33.3956 30.6105 33.5225 30.6816 33.6251 30.779C33.7276 30.8764 33.8025 30.997 33.8426 31.1295L35.6021 36.4866C35.6523 36.6397 35.7467 36.7764 35.8746 36.8811C36.0025 36.9858 36.1587 37.0544 36.3255 37.0789C36.4924 37.1035 36.6631 37.0831 36.8184 37.02C36.9736 36.957 37.1071 36.8538 37.2037 36.7223L40.4972 32.2223C40.5847 32.1126 40.697 32.023 40.8258 31.9599C40.9546 31.8969 41.0967 31.8621 41.2416 31.858H47.1517C47.3211 31.8621 47.4884 31.8207 47.6342 31.7386C47.7801 31.6566 47.8988 31.5371 47.9764 31.394C48.0542 31.2508 48.0878 31.0898 48.0736 30.9293C48.0594 30.7688 47.9978 30.6154 47.8961 30.4866L44.3545 25.9866C44.2891 25.8637 44.255 25.7279 44.255 25.5902C44.255 25.4525 44.2891 25.3167 44.3545 25.1938ZM17.1568 43.3418L28.9796 32.1108L31.4518 32.8435L32.1978 35.1147L20.3469 46.3724C19.466 47.2092 18.0377 47.2092 17.1568 46.3724C16.2759 45.5354 16.2759 44.1788 17.1568 43.3418Z" fill="white"/>
</svg>
