<svg width="65" height="64" viewBox="0 0 65 64" fill="none" xmlns="http://www.w3.org/2000/svg">
<rect x="0.286133" width="64" height="64" rx="32" fill="#FF7B42"/>
<path d="M25.1803 18.5645C20.3841 18.5645 16.4961 22.4518 16.4961 27.2487C16.4961 32.2761 19.3595 37.0192 24.0948 41.3613C25.711 42.8424 27.4511 44.1419 29.1769 45.3087C29.7818 45.7161 30.3476 46.0856 30.8547 46.3935C31.1639 46.5814 31.3677 46.7171 31.4961 46.7882C31.9729 47.0535 32.5982 47.0535 33.075 46.7882C33.2034 46.7171 33.4073 46.5814 33.7164 46.3935C34.2236 46.0856 34.7893 45.7161 35.3942 45.3087C37.12 44.1419 38.8602 42.8424 40.4764 41.3613C45.2116 37.0192 48.075 32.2761 48.075 27.2487C48.075 22.4518 44.187 18.5645 39.3908 18.5645C36.6668 18.5645 34.0073 20.0487 32.3348 22.215C30.7041 20.0108 28.0538 18.5645 25.1803 18.5645Z" fill="white"/>
</svg>
