<svg width="21" height="19" viewBox="0 0 21 19" fill="none" xmlns="http://www.w3.org/2000/svg">
<path d="M2.74267 10.9082L9.69528 17.4395C9.93477 17.6644 10.0545 17.7769 10.1957 17.8046C10.2593 17.8171 10.3247 17.8171 10.3883 17.8046C10.5295 17.7769 10.6492 17.6644 10.8887 17.4395L17.8413 10.9082C19.7975 9.07059 20.035 6.0466 18.3898 3.92607L18.0804 3.52734C16.1123 0.99058 12.1616 1.41601 10.7787 4.31365C10.5833 4.72296 10.0007 4.72296 9.80533 4.31365C8.42236 1.41601 4.47171 0.990584 2.50353 3.52735L2.19418 3.92607C0.54894 6.0466 0.78649 9.07059 2.74267 10.9082Z" fill="white" stroke="white" stroke-width="2"/>
</svg>
