<svg width="65" height="64" viewBox="0 0 65 64" fill="none" xmlns="http://www.w3.org/2000/svg">
<rect x="0.286133" width="64" height="64" rx="32" fill="#FF7B42"/>
<path fill-rule="evenodd" clip-rule="evenodd" d="M35.813 17.9015L32.1165 22.5835C32.2279 22.6629 32.3341 22.7503 32.434 22.8452L41.9235 31.8597C42.0234 31.9546 42.1155 32.0556 42.199 32.1615L47.1278 28.65C48.2827 27.8271 48.4027 26.2233 47.3819 25.2535L39.3884 17.6601C38.3676 16.6904 36.6792 16.8043 35.813 17.9015ZM19.3792 27.6624L16.4961 45.008L23.4956 38.3589L22.7647 37.6646C22.1856 37.1145 22.1856 36.2227 22.7647 35.6726C23.3437 35.1225 24.2825 35.1225 24.8616 35.6726L28.4201 39.053C28.9992 39.6031 28.9992 40.4949 28.4201 41.045C27.8411 41.5951 26.9023 41.5951 26.3232 41.045L25.5925 40.3509L18.593 47L36.8525 44.2612C37.9083 44.1027 38.7223 43.2932 38.8403 42.284L39.8266 33.8516L30.3371 24.8371L21.4605 25.774C20.3981 25.8862 19.5459 26.6594 19.3792 27.6624Z" fill="white"/>
</svg>
