<svg width="29" height="30" viewBox="0 0 29 30" fill="none" xmlns="http://www.w3.org/2000/svg">
<mask id="path-1-outside-1_526_2927" maskUnits="userSpaceOnUse" x="1.5498" y="2.36523" width="26" height="27" fill="black">
<rect fill="white" x="1.5498" y="2.36523" width="26" height="27"/>
<path d="M14.4107 3.36523C17.1548 3.36523 19.814 4.33455 21.9352 6.10802C24.0564 7.8815 25.5083 10.3494 26.0437 13.0912C26.579 15.8331 26.1646 18.6792 24.8711 21.1446C23.5775 23.6101 21.4849 25.5423 18.9497 26.6121C16.4145 27.6819 13.5936 27.8231 10.9677 27.0116C8.34175 26.2001 6.07327 24.4861 4.54874 22.1617C3.02421 19.8373 2.33797 17.0463 2.60694 14.2642C2.8759 11.4821 4.08344 8.8811 6.0238 6.90436L9.37856 10.322C8.21435 11.5081 7.48982 13.0687 7.32844 14.7379C7.16706 16.4072 7.57881 18.0818 8.49353 19.4764C9.40824 20.8711 10.7693 21.8995 12.3449 22.3864C13.9204 22.8733 15.613 22.7886 17.1341 22.1467C18.6552 21.5048 19.9108 20.3455 20.6869 18.8662C21.4631 17.3869 21.7117 15.6793 21.3905 14.0342C21.0693 12.3891 20.1981 10.9083 18.9254 9.84424C17.6527 8.78016 16.0572 8.19857 14.4107 8.19857V3.36523Z"/>
</mask>
<path d="M14.4107 3.36523C17.1548 3.36523 19.814 4.33455 21.9352 6.10802C24.0564 7.8815 25.5083 10.3494 26.0437 13.0912C26.579 15.8331 26.1646 18.6792 24.8711 21.1446C23.5775 23.6101 21.4849 25.5423 18.9497 26.6121C16.4145 27.6819 13.5936 27.8231 10.9677 27.0116C8.34175 26.2001 6.07327 24.4861 4.54874 22.1617C3.02421 19.8373 2.33797 17.0463 2.60694 14.2642C2.8759 11.4821 4.08344 8.8811 6.0238 6.90436L9.37856 10.322C8.21435 11.5081 7.48982 13.0687 7.32844 14.7379C7.16706 16.4072 7.57881 18.0818 8.49353 19.4764C9.40824 20.8711 10.7693 21.8995 12.3449 22.3864C13.9204 22.8733 15.613 22.7886 17.1341 22.1467C18.6552 21.5048 19.9108 20.3455 20.6869 18.8662C21.4631 17.3869 21.7117 15.6793 21.3905 14.0342C21.0693 12.3891 20.1981 10.9083 18.9254 9.84424C17.6527 8.78016 16.0572 8.19857 14.4107 8.19857V3.36523Z" fill="white"/>
<path d="M14.4107 3.36523V2.36523H13.4107V3.36523L14.4107 3.36523ZM21.9352 6.10802L22.5766 5.34084L21.9352 6.10802ZM18.9497 26.6121L19.3384 27.5334L18.9497 26.6121ZM10.9677 27.0116L11.2629 26.0562L10.9677 27.0116ZM4.54874 22.1617L3.71255 22.7101L4.54874 22.1617ZM2.60694 14.2642L1.61158 14.168L2.60694 14.2642ZM6.0238 6.90436L6.73744 6.20385L6.0238 5.47682L5.31015 6.20385L6.0238 6.90436ZM9.37856 10.322L10.0922 11.0225L10.7798 10.322L10.0922 9.62153L9.37856 10.322ZM7.32844 14.7379L6.33308 14.6417L7.32844 14.7379ZM8.49353 19.4764L7.65734 20.0249L8.49353 19.4764ZM12.3449 22.3864L12.0496 23.3418L12.3449 22.3864ZM17.1341 22.1467L17.5229 23.068L17.1341 22.1467ZM21.3905 14.0342L22.372 13.8425L21.3905 14.0342ZM18.9254 9.84424L19.5668 9.07705L18.9254 9.84424ZM14.4107 8.19857H13.4107V9.19857H14.4107V8.19857ZM14.4107 4.36523C16.9183 4.36523 19.3509 5.2509 21.2937 6.87521L22.5766 5.34084C20.277 3.41821 17.3912 2.36523 14.4107 2.36523V4.36523ZM21.2937 6.87521C23.2369 8.49987 24.5703 10.7637 25.0622 13.2829L27.0252 12.8996C26.4463 9.93514 24.8758 7.26313 22.5766 5.34084L21.2937 6.87521ZM25.0622 13.2829C25.5541 15.8022 25.173 18.4168 23.9855 20.68L25.7566 21.6092C27.1562 18.9416 27.6039 15.8639 27.0252 12.8996L25.0622 13.2829ZM23.9855 20.68C22.7983 22.9429 20.8798 24.7122 18.5609 25.6908L19.3384 27.5334C22.0899 26.3724 24.3568 24.2772 25.7566 21.6092L23.9855 20.68ZM18.5609 25.6908C16.2423 26.6692 13.6636 26.7981 11.2629 26.0562L10.6724 27.967C13.5235 28.8481 16.5866 28.6947 19.3384 27.5334L18.5609 25.6908ZM11.2629 26.0562C8.8619 25.3142 6.78353 23.7457 5.38493 21.6133L3.71255 22.7101C5.363 25.2266 7.8216 27.086 10.6724 27.967L11.2629 26.0562ZM5.38493 21.6133C3.98609 19.4805 3.35512 16.9171 3.6023 14.3604L1.61158 14.168C1.32082 17.1754 2.06234 20.1941 3.71255 22.7101L5.38493 21.6133ZM3.6023 14.3604C3.84947 11.8038 4.95893 9.41673 6.73744 7.60487L5.31015 6.20385C3.20795 8.34547 1.90234 11.1604 1.61158 14.168L3.6023 14.3604ZM5.31015 7.60486L8.66492 11.0225L10.0922 9.62153L6.73744 6.20385L5.31015 7.60486ZM8.66492 9.62153C7.33886 10.9725 6.51626 12.747 6.33308 14.6417L8.3238 14.8342C8.46339 13.3904 9.08983 12.0437 10.0922 11.0225L8.66492 9.62153ZM6.33308 14.6417C6.14991 16.5363 6.61693 18.4386 7.65734 20.0249L9.32972 18.928C8.54068 17.725 8.18421 16.278 8.3238 14.8342L6.33308 14.6417ZM7.65734 20.0249C8.69798 21.6115 10.2492 22.7854 12.0496 23.3418L12.6401 21.431C11.2895 21.0136 10.1185 20.1307 9.32972 18.928L7.65734 20.0249ZM12.0496 23.3418C13.8504 23.8983 15.7851 23.8013 17.5229 23.068L16.7453 21.2254C15.4408 21.7758 13.9905 21.8483 12.6401 21.431L12.0496 23.3418ZM17.5229 23.068C19.2602 22.3349 20.69 21.0126 21.5724 19.3308L19.8014 18.4016C19.1315 19.6783 18.0502 20.6747 16.7453 21.2254L17.5229 23.068ZM21.5724 19.3308C22.4547 17.6493 22.7366 15.7101 22.372 13.8425L20.409 14.2258C20.6868 15.6484 20.4714 17.1245 19.8014 18.4016L21.5724 19.3308ZM22.372 13.8425C22.0073 11.9748 21.0175 10.29 19.5668 9.07705L18.284 10.6114C19.3787 11.5267 20.1313 12.8033 20.409 14.2258L22.372 13.8425ZM19.5668 9.07705C18.1157 7.86381 16.2936 7.19857 14.4107 7.19857V9.19857C15.8207 9.19857 17.1896 9.6965 18.284 10.6114L19.5668 9.07705ZM15.4107 8.19857V3.36523L13.4107 3.36523V8.19857H15.4107Z" fill="white" mask="url(#path-1-outside-1_526_2927)"/>
<path d="M14.411 15.4486L6.1084 6.99023" stroke="white" stroke-width="2" stroke-linecap="round"/>
</svg>
