<svg width="65" height="64" viewBox="0 0 65 64" fill="none" xmlns="http://www.w3.org/2000/svg">
<rect x="0.286133" width="64" height="64" rx="32" fill="#FF7B42"/>
<g clip-path="url(#clip0_1661_3330)">
<path fill-rule="evenodd" clip-rule="evenodd" d="M43.4715 38.9322C46.3175 36.6069 48.0768 33.3993 48.0768 29.8571C48.0768 22.7563 41.0072 17 32.2864 17C23.5657 17 16.4961 22.7563 16.4961 29.8571C16.4961 33.3993 18.2554 36.6069 21.1013 38.9322V44.8572C21.1013 46.0406 22.2795 47 23.733 47C25.1865 47 26.3647 46.0406 26.3647 44.8572V42.8941H29.6547V44.8572C29.6547 46.0406 30.833 47 32.2864 47C33.7399 47 34.9182 46.0406 34.9182 44.8572V42.8941H38.2081V44.8572C38.2081 46.0406 39.3864 47 40.8398 47C42.2933 47 43.4715 46.0406 43.4715 44.8572V38.9322ZM26.3647 35.3941C28.1815 35.3941 29.6544 34.1949 29.6544 32.7156C29.6544 31.2362 28.1815 30.037 26.3647 30.037C24.5479 30.037 23.0751 31.2362 23.0751 32.7156C23.0751 34.1949 24.5479 35.3941 26.3647 35.3941ZM41.4977 32.7156C41.4977 34.1949 40.025 35.3941 38.2081 35.3941C36.3913 35.3941 34.9185 34.1949 34.9185 32.7156C34.9185 31.2362 36.3913 30.037 38.2081 30.037C40.025 30.037 41.4977 31.2362 41.4977 32.7156Z" fill="white"/>
</g>
<defs>
<clipPath id="clip0_1661_3330">
<rect width="31.5807" height="30" fill="white" transform="translate(16.4961 17)"/>
</clipPath>
</defs>
</svg>
