<svg width="30" height="30" viewBox="0 0 30 30" fill="none" xmlns="http://www.w3.org/2000/svg">
<path d="M4.05029 9.88477H21.0003C22.6805 9.88477 23.5205 9.88477 24.1623 10.2117C24.7268 10.4994 25.1857 10.9583 25.4733 11.5228C25.8003 12.1645 25.8003 13.0046 25.8003 14.6848V18.3764C25.8003 20.0566 25.8003 20.8967 25.4733 21.5384C25.1857 22.1029 24.7268 22.5618 24.1623 22.8495C23.5205 23.1764 22.6805 23.1764 21.0003 23.1764H8.85029C7.17014 23.1764 6.33006 23.1764 5.68832 22.8495C5.12384 22.5618 4.66489 22.1029 4.37727 21.5384C4.05029 20.8967 4.05029 20.0566 4.05029 18.3764V9.88477Z" fill="white"/>
<path d="M4.05029 9.88477C4.05029 8.36096 4.05029 7.59905 4.44388 7.06837C4.56106 6.91037 4.7009 6.77053 4.85889 6.65335C5.38958 6.25977 6.15149 6.25977 7.67529 6.25977H10.8518C11.6693 6.25977 12.078 6.25977 12.4456 6.41201C12.8131 6.56425 13.1021 6.85328 13.6802 7.43134L16.1336 9.88477H4.05029Z" fill="white" fill-opacity="0.97"/>
</svg>
