<svg width="65" height="64" viewBox="0 0 65 64" fill="none" xmlns="http://www.w3.org/2000/svg">
<rect x="0.286133" width="64" height="64" rx="32" fill="#FF7B42"/>
<path fill-rule="evenodd" clip-rule="evenodd" d="M29.4999 41.7059C36.6817 41.7059 42.5037 36.1753 42.5037 29.3529C42.5037 22.5306 36.6817 17 29.4999 17C22.3181 17 16.4961 22.5306 16.4961 29.3529C16.4961 36.1753 22.3181 41.7059 29.4999 41.7059ZM29.4999 21.2941C28.3997 21.2941 27.3091 21.4999 26.2901 21.9009C25.271 22.3019 24.3418 22.8909 23.5568 23.6366C22.7717 24.3824 22.146 25.2706 21.7181 26.252C21.2902 27.2334 21.0692 28.2873 21.0692 29.3529C21.0692 29.9052 21.5169 30.3529 22.0692 30.3529C22.6214 30.3529 23.0692 29.9052 23.0692 29.3529C23.0692 28.5646 23.2325 27.7827 23.5514 27.0513C23.8704 26.3198 24.3394 25.6517 24.9343 25.0866C25.5293 24.5214 26.2384 24.0705 27.0224 23.762C27.8065 23.4535 28.6485 23.2941 29.4999 23.2941C30.0522 23.2941 30.4999 22.8464 30.4999 22.2941C30.4999 21.7418 30.0522 21.2941 29.4999 21.2941Z" fill="white"/>
<path d="M46.2193 45.2355L42.5039 41.7061" stroke="white" stroke-width="2" stroke-linecap="round"/>
</svg>
