<svg width="12" height="13" viewBox="0 0 12 13" fill="none" xmlns="http://www.w3.org/2000/svg">
<path fill-rule="evenodd" clip-rule="evenodd" d="M6 12.5C9.31371 12.5 12 9.81371 12 6.5C12 3.18629 9.31371 0.5 6 0.5C2.68629 0.5 0 3.18629 0 6.5C0 9.81371 2.68629 12.5 6 12.5ZM7 2.83333C7 2.28105 6.55228 1.83333 6 1.83333C5.44772 1.83333 5 2.28105 5 2.83333V6.25C5 6.94035 5.55964 7.5 6.25 7.5H8.33333C8.88562 7.5 9.33333 7.05229 9.33333 6.5C9.33333 5.94772 8.88562 5.5 8.33333 5.5H7V2.83333Z" fill="#33363F"/>
</svg>
