<svg width="65" height="64" viewBox="0 0 65 64" fill="none" xmlns="http://www.w3.org/2000/svg">
<rect x="0.286133" width="64" height="64" rx="32" fill="#FF7B42"/>
<path fill-rule="evenodd" clip-rule="evenodd" d="M26.3802 17C28.1808 17 29.7933 17.8417 30.8766 19.1689V29.92C30.8386 30.4031 30.5758 31.4097 29.9725 32.3287C29.376 33.2373 28.5416 33.9261 27.3942 34.0598C26.6204 34.1501 26.0631 34.8784 26.1495 35.6867C26.2358 36.495 26.9332 37.0771 27.707 36.9869C28.9972 36.8364 30.0455 36.3066 30.8766 35.6099V44.2556C29.6403 45.9251 27.7036 47 25.5266 47C22.1329 47 19.3234 44.3877 18.8404 40.9834C19.0976 40.1568 19.5166 39.4429 19.918 39.1119C20.5291 38.6079 20.6333 37.6819 20.1508 37.0436C19.6683 36.4053 18.7817 36.2964 18.1706 36.8004C17.9627 36.9719 17.768 37.1658 17.5867 37.3769C16.8969 35.797 16.4961 33.8348 16.4961 32.1035C16.4961 29.8077 17.2009 27.5534 18.3499 25.893C18.5989 26.3952 18.8966 26.8366 19.2158 27.2165C20.0479 28.2067 21.0873 28.8481 21.8975 29.041C22.6567 29.2218 23.4124 28.7256 23.5855 27.9326C23.7586 27.1397 23.2835 26.3503 22.5243 26.1695C22.3953 26.1388 21.8513 25.8881 21.3349 25.2736C20.9198 24.7796 20.5605 24.0934 20.474 23.1756L20.474 23.169C20.474 19.762 23.1182 17 26.3802 17ZM39.0463 47C36.8693 47 34.9326 45.9249 33.6963 44.2556V30.4883C34.2743 30.9249 34.8871 31.2831 35.4823 31.5454C36.1997 31.8616 37.0266 31.5104 37.3293 30.7611C37.632 30.0118 37.2959 29.1481 36.5785 28.8319C35.3328 28.2829 34.1826 27.2176 33.7801 26.2372C33.7554 26.1771 33.7274 26.1196 33.6963 26.0648V19.169C34.7796 17.8417 36.3921 17 38.1928 17C41.4548 17 44.099 19.762 44.099 23.169C44.099 23.395 44.0872 23.6181 44.0647 23.8378L44.0694 23.8405C43.9271 24.8062 43.5499 25.6968 43.145 26.1139C42.5905 26.6849 42.5842 27.6173 43.131 28.1964C43.6776 28.7755 44.5704 28.7821 45.1249 28.2111C45.6701 27.6493 46.0858 26.9141 46.3816 26.1301C47.4364 27.7646 48.0768 29.9152 48.0768 32.1035C48.0768 34.6703 47.1959 37.7445 45.7982 39.3284L45.747 39.3251C45.4583 39.3034 45.0874 39.2294 44.6728 39.0666C43.8549 38.745 42.8653 38.0763 42.0034 36.7692C41.5617 36.0994 40.6837 35.9304 40.0426 36.3917C39.4013 36.853 39.2396 37.77 39.681 38.4397C40.8782 40.2551 42.3372 41.2953 43.6796 41.8228C44.2781 42.0582 44.8781 42.1998 45.4346 42.2531C44.5176 45.0161 42.0038 47 39.0463 47Z" fill="white"/>
</svg>
