<svg width="101" height="17" viewBox="0 0 101 17" fill="none" xmlns="http://www.w3.org/2000/svg">
<path d="M8.11268 3.29862C8.41928 2.39275 9.70051 2.39275 10.0071 3.29863L10.7009 5.34846C10.8383 5.75456 11.2194 6.02786 11.6481 6.02786H13.8036C14.7822 6.02786 15.1783 7.28824 14.3757 7.84807L12.703 9.01472C12.3382 9.26921 12.1853 9.73413 12.3279 10.1555L12.9832 12.0917C13.2926 13.0059 12.2555 13.7846 11.4639 13.2325L9.63197 11.9547C9.28826 11.715 8.83153 11.715 8.48782 11.9547L6.65589 13.2325C5.8643 13.7846 4.82719 13.0059 5.1366 12.0917L5.79191 10.1555C5.93453 9.73413 5.78164 9.26921 5.41677 9.01472L3.7441 7.84807C2.94147 7.28825 3.3376 6.02786 4.31618 6.02786H6.47168C6.90042 6.02786 7.28145 5.75456 7.4189 5.34846L8.11268 3.29862Z" fill="#FF7B42"/>
<path d="M28.9462 3.29862C29.2528 2.39275 30.534 2.39275 30.8406 3.29863L31.5344 5.34846C31.6718 5.75456 32.0529 6.02786 32.4816 6.02786H34.6371C35.6157 6.02786 36.0118 7.28824 35.2092 7.84807L33.5365 9.01472C33.1716 9.26921 33.0188 9.73413 33.1614 10.1555L33.8167 12.0917C34.1261 13.0059 33.089 13.7846 32.2974 13.2325L30.4655 11.9547C30.1218 11.715 29.665 11.715 29.3213 11.9547L27.4894 13.2325C26.6978 13.7846 25.6607 13.0059 25.9701 12.0917L26.6254 10.1555C26.768 9.73413 26.6151 9.26921 26.2503 9.01472L24.5776 7.84807C23.775 7.28825 24.1711 6.02786 25.1497 6.02786H27.3052C27.7339 6.02786 28.1149 5.75456 28.2524 5.34846L28.9462 3.29862Z" fill="#FF7B42"/>
<path d="M49.7792 3.29862C50.0858 2.39275 51.367 2.39275 51.6736 3.29863L52.3674 5.34846C52.5048 5.75456 52.8859 6.02786 53.3146 6.02786H55.4701C56.4487 6.02786 56.8448 7.28824 56.0422 7.84807L54.3695 9.01472C54.0047 9.26921 53.8518 9.73413 53.9944 10.1555L54.6497 12.0917C54.9591 13.0059 53.922 13.7846 53.1304 13.2325L51.2985 11.9547C50.9548 11.715 50.498 11.715 50.1543 11.9547L48.3224 13.2325C47.5308 13.7846 46.4937 13.0059 46.8031 12.0917L47.4584 10.1555C47.601 9.73413 47.4481 9.26921 47.0833 9.01472L45.4106 7.84807C44.608 7.28825 45.0041 6.02786 45.9827 6.02786H48.1382C48.5669 6.02786 48.9479 5.75456 49.0854 5.34846L49.7792 3.29862Z" fill="#FF7B42"/>
<path d="M70.6127 3.29862C70.9193 2.39275 72.2005 2.39275 72.5071 3.29863L73.2009 5.34846C73.3383 5.75456 73.7194 6.02786 74.1481 6.02786H76.3036C77.2822 6.02786 77.6783 7.28824 76.8757 7.84807L75.203 9.01472C74.8381 9.26921 74.6853 9.73413 74.8279 10.1555L75.4832 12.0917C75.7926 13.0059 74.7555 13.7846 73.9639 13.2325L72.132 11.9547C71.7883 11.715 71.3315 11.715 70.9878 11.9547L69.1559 13.2325C68.3643 13.7846 67.3272 13.0059 67.6366 12.0917L68.2919 10.1555C68.4345 9.73413 68.2816 9.26921 67.9168 9.01472L66.2441 7.84807C65.4415 7.28825 65.8376 6.02786 66.8162 6.02786H68.9717C69.4004 6.02786 69.7814 5.75456 69.9189 5.34846L70.6127 3.29862Z" fill="#FF7B42"/>
<path d="M91.9198 3.45892C92.0731 3.00598 92.7137 3.00598 92.867 3.45892L93.5608 5.50875C93.767 6.11791 94.3385 6.52786 94.9816 6.52786H97.1371C97.6264 6.52786 97.8245 7.15805 97.4231 7.43796L95.7505 8.60462C95.2032 8.98635 94.9738 9.68374 95.1878 10.3158L95.8431 12.252C95.9978 12.7091 95.4792 13.0984 95.0834 12.8224L93.2515 11.5446C92.7359 11.185 92.0508 11.185 91.5353 11.5446L89.7033 12.8224C89.3076 13.0984 88.789 12.7091 88.9437 12.252L89.599 10.3158C89.8129 9.68374 89.5836 8.98635 89.0363 8.60462L87.3636 7.43797C86.9623 7.15805 87.1604 6.52786 87.6497 6.52786H89.8052C90.4483 6.52786 91.0198 6.11791 91.226 5.50875L91.9198 3.45892Z" fill="white" stroke="#FF7B42"/>
</svg>
