<svg width="101" height="17" viewBox="0 0 101 17" fill="none" xmlns="http://www.w3.org/2000/svg">
<path d="M8.28455 3.49491C8.59116 2.58904 9.87239 2.58904 10.179 3.49491L10.8728 5.54475C11.0102 5.95085 11.3913 6.22415 11.82 6.22415H13.9755C14.9541 6.22415 15.3502 7.48453 14.5476 8.04435L12.8749 9.21101C12.51 9.4655 12.3571 9.93042 12.4998 10.3518L13.1551 12.288C13.4645 13.2021 12.4274 13.9809 11.6358 13.4288L9.80385 12.151C9.46014 11.9113 9.00341 11.9113 8.6597 12.151L6.82777 13.4288C6.03617 13.9809 4.99906 13.2021 5.30847 12.288L5.96379 10.3518C6.1064 9.93042 5.95352 9.4655 5.58864 9.21101L3.91598 8.04436C3.11335 7.48453 3.50947 6.22415 4.48805 6.22415H6.64355C7.07229 6.22415 7.45332 5.95085 7.59077 5.54475L8.28455 3.49491Z" fill="#FF7B42"/>
<path d="M29.1176 3.49491C29.4242 2.58904 30.7054 2.58904 31.012 3.49491L31.7058 5.54475C31.8432 5.95085 32.2243 6.22415 32.653 6.22415H34.8085C35.7871 6.22415 36.1832 7.48453 35.3806 8.04435L33.7079 9.21101C33.343 9.4655 33.1901 9.93042 33.3328 10.3518L33.9881 12.288C34.2975 13.2021 33.2604 13.9809 32.4688 13.4288L30.6369 12.151C30.2931 11.9113 29.8364 11.9113 29.4927 12.151L27.6608 13.4288C26.8692 13.9809 25.8321 13.2021 26.1415 12.288L26.7968 10.3518C26.9394 9.93042 26.7865 9.4655 26.4217 9.21101L24.749 8.04436C23.9464 7.48453 24.3425 6.22415 25.3211 6.22415H27.4766C27.9053 6.22415 28.2863 5.95085 28.4238 5.54475L29.1176 3.49491Z" fill="#FF7B42"/>
<path d="M49.9515 3.49491C50.2581 2.58904 51.5394 2.58904 51.846 3.49491L52.5398 5.54475C52.6772 5.95085 53.0582 6.22415 53.487 6.22415H55.6425C56.6211 6.22415 57.0172 7.48453 56.2146 8.04435L54.5419 9.21101C54.177 9.4655 54.0241 9.93042 54.1667 10.3518L54.8221 12.288C55.1315 13.2021 54.0944 13.9809 53.3028 13.4288L51.4708 12.151C51.1271 11.9113 50.6704 11.9113 50.3267 12.151L48.4948 13.4288C47.7032 13.9809 46.6661 13.2021 46.9755 12.288L47.6308 10.3518C47.7734 9.93042 47.6205 9.4655 47.2556 9.21101L45.583 8.04436C44.7803 7.48453 45.1765 6.22415 46.155 6.22415H48.3105C48.7393 6.22415 49.1203 5.95085 49.2578 5.54475L49.9515 3.49491Z" fill="#FF7B42"/>
<path d="M70.7846 3.49491C71.0912 2.58904 72.3724 2.58904 72.679 3.49491L73.3728 5.54475C73.5102 5.95085 73.8912 6.22415 74.32 6.22415H76.4755C77.4541 6.22415 77.8502 7.48453 77.0476 8.04435L75.3749 9.21101C75.01 9.4655 74.8571 9.93042 74.9998 10.3518L75.6551 12.288C75.9645 13.2021 74.9274 13.9809 74.1358 13.4288L72.3038 12.151C71.9601 11.9113 71.5034 11.9113 71.1597 12.151L69.3278 13.4288C68.5362 13.9809 67.4991 13.2021 67.8085 12.288L68.4638 10.3518C68.6064 9.93042 68.4535 9.4655 68.0886 9.21101L66.416 8.04436C65.6133 7.48453 66.0095 6.22415 66.9881 6.22415H69.1436C69.5723 6.22415 69.9533 5.95085 70.0908 5.54475L70.7846 3.49491Z" fill="#FF7B42"/>
<path d="M92.0912 3.65521C92.2445 3.20227 92.8851 3.20227 93.0384 3.65521L93.7322 5.70504C93.9383 6.3142 94.5099 6.72415 95.153 6.72415H97.3085C97.7978 6.72415 97.9958 7.35434 97.5945 7.63425L95.9219 8.8009C95.3746 9.18264 95.1452 9.88003 95.3592 10.5121L96.0145 12.4483C96.1692 12.9054 95.6506 13.2947 95.2548 13.0187L93.4229 11.7409C92.9073 11.3813 92.2222 11.3813 91.7067 11.7409L89.8747 13.0187C89.4789 13.2947 88.9604 12.9054 89.1151 12.4483L89.7704 10.5121C89.9843 9.88003 89.755 9.18264 89.2077 8.80091L87.535 7.63425C87.1337 7.35434 87.3318 6.72415 87.8211 6.72415H89.9766C90.6197 6.72415 91.1912 6.3142 91.3974 5.70504L92.0912 3.65521Z" fill="white" stroke="#FF7B42"/>
</svg>
