<svg width="13" height="13" viewBox="0 0 13 13" fill="none" xmlns="http://www.w3.org/2000/svg">
<path d="M2.29297 10.9H5.19297C6.07662 10.9 6.79297 11.6163 6.79297 12.5V5C6.79297 3.60218 6.79297 2.90326 6.56461 2.35195C6.26013 1.61687 5.6761 1.03284 4.94102 0.728361C4.38971 0.5 3.69079 0.5 2.29297 0.5C1.82703 0.5 1.59406 0.5 1.41028 0.57612C1.16526 0.677614 0.970583 0.872288 0.869089 1.11732C0.792969 1.30109 0.792969 1.53406 0.792969 2V9.4C0.792969 9.86594 0.792969 10.0989 0.869089 10.2827C0.970583 10.5277 1.16526 10.7224 1.41028 10.8239C1.59406 10.9 1.82703 10.9 2.29297 10.9Z" fill="#FF7B42"/>
<path d="M11.293 10.9H8.39297C7.50931 10.9 6.79297 11.6163 6.79297 12.5V5C6.79297 3.60218 6.79297 2.90326 7.02133 2.35195C7.32581 1.61687 7.90983 1.03284 8.64492 0.728361C9.19623 0.5 9.89514 0.5 11.293 0.5C11.7589 0.5 11.9919 0.5 12.1757 0.57612C12.4207 0.677614 12.6154 0.872288 12.7168 1.11732C12.793 1.30109 12.793 1.53406 12.793 2V9.4C12.793 9.86594 12.793 10.0989 12.7168 10.2827C12.6154 10.5277 12.4207 10.7224 12.1757 10.8239C11.9919 10.9 11.7589 10.9 11.293 10.9Z" fill="#FF7B42"/>
</svg>
