<svg width="65" height="64" viewBox="0 0 65 64" fill="none" xmlns="http://www.w3.org/2000/svg">
<rect x="0.286133" width="64" height="64" rx="32" fill="#FF7B42"/>
<path fill-rule="evenodd" clip-rule="evenodd" d="M31.2399 39.0358L24.8912 33.002C25.5892 31.8911 26.2847 30.7425 26.9751 29.602C29.2708 25.8102 31.5121 22.1084 33.6117 20.1829C39.3134 14.7638 47.1235 17.906 47.1235 17.906C47.1235 17.906 50.4296 25.3287 44.7277 30.7478C42.7185 32.7269 38.8849 34.8251 34.9258 36.992C33.6923 37.667 32.4464 38.3489 31.2399 39.0358ZM36.0756 25.0101C36.0756 23.1345 37.6754 21.6141 39.6489 21.6141C41.6222 21.6141 43.2221 23.1345 43.2221 25.0101C43.2221 26.8857 41.6222 28.4061 39.6489 28.4061C37.6754 28.4061 36.0756 26.8857 36.0756 25.0101ZM26.834 24.5123C23.6309 23.7022 20.6253 25.2022 17.9585 27.527C17.4221 27.9947 17.5341 28.8127 18.1576 29.1696L22.4617 31.6339L22.4667 31.6259C23.0875 30.6378 23.7815 29.4932 24.4847 28.3335C25.2876 27.0093 26.1027 25.665 26.834 24.5123ZM32.6794 41.3448L35.2723 45.4353C35.6479 46.0279 36.5086 46.1344 37.0006 45.6247C39.4476 43.0892 41.026 40.2317 40.1719 37.1863C38.9941 37.8609 37.7556 38.5401 36.5287 39.2117L36.3416 39.3141C35.1024 39.9923 33.876 40.6635 32.691 41.3381L32.6794 41.3448ZM22.3734 37.0597C22.98 37.0495 23.5826 37.1556 24.1452 37.3715C24.7078 37.5875 25.2188 37.909 25.6479 38.3167C26.0769 38.7245 26.4151 39.2102 26.6424 39.745C26.8696 40.2796 26.9812 40.8522 26.9705 41.4289C26.9598 42.0054 26.827 42.5739 26.5801 43.1008C26.3344 43.6249 25.9807 44.0968 25.54 44.4887C25.039 44.9447 24.2551 45.3013 23.5283 45.5757C22.7533 45.8686 21.8691 46.1301 21.0435 46.3442C20.2152 46.5591 19.424 46.7319 18.8266 46.8446C18.5299 46.9005 18.2681 46.944 18.0675 46.97C17.9712 46.9825 17.8649 46.9941 17.7667 46.9981C17.7222 47.0001 17.6418 47.0024 17.5498 46.9941C17.5057 46.99 17.4203 46.9803 17.3188 46.9516C17.2518 46.9324 16.9915 46.8571 16.7746 46.6166C16.5889 46.4107 16.5383 46.1958 16.5261 46.1441C16.5066 46.0612 16.5006 45.991 16.4984 45.9536C16.4937 45.8763 16.4972 45.8078 16.5 45.767C16.506 45.6788 16.5188 45.5815 16.5328 45.4905C16.5616 45.3018 16.6085 45.0551 16.6686 44.7738C16.7894 44.2081 16.9728 43.4596 17.2 42.6757C17.4264 41.8944 17.7022 41.0579 18.0105 40.3245C18.2998 39.6361 18.675 38.8943 19.1539 38.4192C19.5663 38.0004 20.0628 37.6642 20.6142 37.4307C21.1684 37.196 21.7667 37.0698 22.3734 37.0597Z" fill="white"/>
</svg>
