<?xml version="1.0" standalone="no"?>
<!DOCTYPE svg PUBLIC "-//W3C//DTD SVG 20010904//EN"
 "http://www.w3.org/TR/2001/REC-SVG-20010904/DTD/svg10.dtd">
<svg version="1.0" xmlns="http://www.w3.org/2000/svg"
 width="1070.000000pt" height="270.000000pt" viewBox="0 0 1070.000000 270.000000"
 preserveAspectRatio="xMidYMid meet">

<g transform="translate(0.000000,270.000000) scale(0.100000,-0.100000)"
fill="#000000" stroke="none">
<path d="M7259 2668 c0 -18 -4 -112 -8 -208 -7 -153 -6 -178 8 -200 9 -14 18
-34 21 -45 6 -19 15 -20 180 -22 96 -1 276 -7 400 -12 503 -23 678 -30 955
-36 160 -3 349 -8 420 -10 488 -17 1270 -22 1393 -10 51 5 72 12 72 21 0 12
-93 14 -562 14 -610 1 -887 5 -1386 21 -419 13 -523 22 -568 50 -32 20 -36 20
-77 5 -102 -37 -247 -44 -575 -27 -152 8 -166 11 -203 35 -42 28 -46 35 -27
54 6 6 12 49 14 98 1 48 6 124 10 168 13 149 16 136 -28 136 -36 0 -38 -2 -39
-32z"/>
<path d="M6601 2103 c0 -10 -5 -85 -11 -168 -11 -140 -9 -309 7 -612 4 -94 9
-123 19 -123 12 0 14 48 14 263 0 330 6 582 15 625 7 30 6 32 -18 32 -18 0
-26 -5 -26 -17z"/>
<path d="M6680 2105 c0 -12 14 -13 78 -9 94 7 106 14 26 15 -32 0 -69 2 -81 5
-15 2 -23 -1 -23 -11z"/>
<path d="M7340 2110 l-145 -6 137 -2 c75 -1 143 -5 152 -8 11 -4 16 -1 16 10
0 9 -3 15 -7 14 -5 -1 -73 -5 -153 -8z"/>
<path d="M6898 2103 c23 -2 61 -2 85 0 23 2 4 4 -43 4 -47 0 -66 -2 -42 -4z"/>
<path d="M7128 2103 c6 -2 18 -2 25 0 6 3 1 5 -13 5 -14 0 -19 -2 -12 -5z"/>
<path d="M6693 1110 c40 -20 97 -36 180 -50 71 -12 143 -31 172 -45 28 -14 65
-28 83 -31 34 -7 54 -25 34 -32 -7 -2 -10 -7 -7 -12 7 -12 -62 -22 -82 -12
-35 18 -224 21 -333 5 -74 -11 -135 -13 -207 -8 -124 8 -117 8 -120 -2 -7 -19
189 -33 542 -38 666 -9 926 -9 1205 1 284 9 439 10 885 2 143 -3 278 -1 300 3
22 4 265 9 540 11 275 2 475 1 445 -3 l-55 -6 60 -3 c33 -1 129 -3 213 -5
l152 -2 0 43 0 44 -472 1 c-260 0 -518 0 -573 -1 -55 0 -196 4 -313 10 -139 6
-219 7 -230 0 -12 -7 8 -10 68 -10 95 0 210 -16 225 -31 6 -6 -173 -9 -500 -9
-659 2 -605 3 -605 -16 0 -10 -6 -14 -17 -10 -54 15 -106 17 -230 7 -82 -7
-150 -8 -168 -3 l-30 9 55 25 c30 14 62 28 70 31 8 3 -123 6 -292 6 -333 1
-299 -3 -668 75 -91 19 -192 40 -225 47 -33 6 -77 18 -98 25 -63 23 -65 15 -4
-16z m3780 -197 c-7 -2 -19 -2 -25 0 -7 3 -2 5 12 5 14 0 19 -2 13 -5z"/>
<path d="M8453 983 c9 -2 23 -2 30 0 6 3 -1 5 -18 5 -16 0 -22 -2 -12 -5z"/>
<path d="M8985 980 c44 -4 84 -3 90 1 5 5 -30 8 -80 7 l-90 -1 80 -7z"/>
<path d="M6350 965 c0 -8 4 -15 10 -15 5 0 7 7 4 15 -4 8 -8 15 -10 15 -2 0
-4 -7 -4 -15z"/>
<path d="M10458 863 c7 -3 16 -2 19 1 4 3 -2 6 -13 5 -11 0 -14 -3 -6 -6z"/>
<path d="M10538 863 c7 -3 16 -2 19 1 4 3 -2 6 -13 5 -11 0 -14 -3 -6 -6z"/>
<path d="M10638 863 c12 -2 32 -2 45 0 12 2 2 4 -23 4 -25 0 -35 -2 -22 -4z"/>
<path d="M6458 273 c7 -3 16 -2 19 1 4 3 -2 6 -13 5 -11 0 -14 -3 -6 -6z"/>
<path d="M6510 270 c34 -11 60 -11 35 0 -11 5 -29 8 -40 8 -16 0 -15 -2 5 -8z"/>
<path d="M6605 259 c4 -5 25 -9 47 -9 52 0 46 7 -10 14 -26 3 -40 1 -37 -5z"/>
<path d="M10396 241 c-3 -4 -29 -7 -58 -5 -46 2 -48 2 -18 -5 l35 -8 -42 -2
c-23 0 -49 -4 -59 -8 -13 -5 -16 -3 -11 10 6 15 -3 17 -78 17 -50 0 -85 -4
-85 -10 0 -5 -7 -10 -16 -10 -8 0 -13 -4 -10 -8 3 -5 -131 -14 -297 -21 -362
-14 -470 -19 -517 -25 -19 -2 -107 -9 -195 -16 -88 -6 -209 -15 -270 -20 -199
-17 -275 -23 -358 -26 -94 -4 -125 -8 -149 -18 -9 -4 -32 -3 -51 3 -18 6 -110
23 -203 36 -93 14 -205 32 -249 40 -44 8 -176 18 -292 21 -117 4 -213 10 -213
14 0 4 -24 7 -52 7 -29 0 -75 2 -103 5 -137 15 -295 20 -295 10 0 -5 -28 -13
-62 -17 -35 -3 -97 -11 -138 -17 -41 -6 -127 -10 -190 -10 -63 1 -120 -2 -126
-6 -5 -4 -23 -25 -38 -47 -16 -22 -19 -30 -8 -17 24 26 29 27 34 6 2 -12 15
-17 43 -19 22 -1 81 -7 130 -13 50 -6 266 -16 480 -22 215 -6 401 -13 415 -15
34 -6 391 -28 520 -31 349 -10 1871 -14 1907 -6 24 6 41 7 38 3 -2 -4 196 -9
440 -10 l445 -2 0 125 0 126 -149 0 c-83 0 -152 -4 -155 -9z m-226 -20 c0 -5
-9 -7 -20 -4 -11 3 -20 7 -20 9 0 2 9 4 20 4 11 0 20 -4 20 -9z m297 -7 c-3
-3 -12 -4 -19 -1 -8 3 -5 6 6 6 11 1 17 -2 13 -5z m-3354 -71 c-7 -2 -19 -2
-25 0 -7 3 -2 5 12 5 14 0 19 -2 13 -5z m104 1 c-3 -3 -12 -4 -19 -1 -8 3 -5
6 6 6 11 1 17 -2 13 -5z m131 -11 c-10 -2 -26 -2 -35 0 -10 3 -2 5 17 5 19 0
27 -2 18 -5z m49 1 c-3 -3 -12 -4 -19 -1 -8 3 -5 6 6 6 11 1 17 -2 13 -5z
m2361 -9 c-3 -3 -72 -12 -154 -20 -82 -9 -158 -18 -169 -20 -11 -3 -63 -8
-115 -11 -58 -4 -104 -12 -119 -21 -19 -12 -25 -13 -31 -2 -7 10 -12 10 -25
-1 -11 -9 -19 -10 -23 -3 -7 10 -261 22 -471 23 -52 0 -92 2 -90 4 8 8 176 17
371 21 103 1 190 5 195 8 4 3 123 8 263 12 140 4 257 9 259 11 6 6 115 5 109
-1z m-2025 -12 c-7 -2 -19 -2 -25 0 -7 3 -2 5 12 5 14 0 19 -2 13 -5z m-90
-40 c-13 -2 -35 -2 -50 0 -16 2 -5 4 22 4 28 0 40 -2 28 -4z m77 3 c0 -3 -4
-8 -10 -11 -5 -3 -10 -1 -10 4 0 6 5 11 10 11 6 0 10 -2 10 -4z m383 -23 c-7
-2 -19 -2 -25 0 -7 3 -2 5 12 5 14 0 19 -2 13 -5z m501 -9 c26 -10 9 -21 -23
-16 -17 2 -28 8 -25 13 6 10 26 12 48 3z m-94 -8 c0 -3 -4 -8 -10 -11 -5 -3
-10 -1 -10 4 0 6 5 11 10 11 6 0 10 -2 10 -4z m267 -6 c96 0 87 -14 -10 -16
-82 -2 -110 3 -101 17 3 6 13 8 21 5 8 -3 49 -6 90 -6z m313 -10 c0 -5 -7 -10
-16 -10 -8 0 -12 5 -9 10 3 6 10 10 16 10 5 0 9 -4 9 -10z m-137 -7 c-7 -2
-21 -2 -30 0 -10 3 -4 5 12 5 17 0 24 -2 18 -5z m75 0 c-10 -2 -28 -2 -40 0
-13 2 -5 4 17 4 22 1 32 -1 23 -4z m679 1 c-3 -3 -12 -4 -19 -1 -8 3 -5 6 6 6
11 1 17 -2 13 -5z"/>
<path d="M8302 154 c-12 -8 -22 -21 -22 -27 0 -9 2 -9 8 -1 4 7 23 19 42 27
25 11 29 16 15 16 -11 1 -31 -6 -43 -15z"/>
<path d="M8377 159 c9 -9 32 -9 85 -2 l73 10 -84 2 c-64 1 -82 -2 -74 -10z"/>
<path d="M6205 45 c-3 -8 -7 -22 -10 -30 -2 -8 -1 -15 4 -15 5 0 11 13 13 30
5 32 1 40 -7 15z"/>
</g>
</svg>
