<svg width="13" height="13" viewBox="0 0 13 13" fill="none" xmlns="http://www.w3.org/2000/svg">
<path fill-rule="evenodd" clip-rule="evenodd" d="M12.6895 6.5C12.6895 9.81371 10.0032 12.5 6.68945 12.5C3.37574 12.5 0.689453 9.81371 0.689453 6.5C0.689453 3.18629 3.37574 0.5 6.68945 0.5C10.0032 0.5 12.6895 3.18629 12.6895 6.5ZM3.31568 9.87377C2.92516 9.48325 2.92516 8.85008 3.31568 8.45956L5.27524 6.5L3.31568 4.54044C2.92516 4.14992 2.92516 3.51675 3.31568 3.12623C3.7062 2.7357 4.33937 2.7357 4.72989 3.12623L6.68945 5.08579L8.64901 3.12623C9.03954 2.7357 9.6727 2.7357 10.0632 3.12623C10.4538 3.51675 10.4538 4.14992 10.0632 4.54044L8.10367 6.5L10.0632 8.45956C10.4538 8.85008 10.4538 9.48325 10.0632 9.87377C9.6727 10.2643 9.03954 10.2643 8.64901 9.87377L6.68945 7.91421L4.72989 9.87377C4.33937 10.2643 3.7062 10.2643 3.31568 9.87377Z" fill="#DB2626"/>
</svg>
